<svg width="70" height="70" viewBox="0 0 70 70" fill="none" xmlns="http://www.w3.org/2000/svg">
<rect width="70" height="70" rx="8" fill="#EDEEF7"/>
<path d="M34.4258 42.1953C31.2031 42.1953 28.8789 40.4961 28.8789 38.1914C28.8789 36.4141 30.2461 34.9688 32.0039 34.6953V34.5977C30.4805 34.3047 29.4258 33.0156 29.4258 31.4727C29.4258 29.2656 31.5352 27.6641 34.4258 27.6641C37.3164 27.6641 39.4258 29.2656 39.4453 31.4727C39.4258 33.0352 38.3516 34.3047 36.8672 34.5977V34.6953C38.5859 34.9688 39.9727 36.4141 39.9727 38.1914C39.9727 40.4961 37.6484 42.1953 34.4258 42.1953ZM34.4258 39.9492C35.9102 39.9492 36.9062 39.1094 36.9062 37.8984C36.9062 36.668 35.8711 35.7695 34.4258 35.7695C32.9805 35.7695 31.9258 36.668 31.9453 37.8984C31.9258 39.1094 32.9219 39.9492 34.4258 39.9492ZM34.4258 33.6992C35.6758 33.6992 36.5742 32.8984 36.5742 31.7656C36.5742 30.6719 35.6953 29.8906 34.4258 29.8906C33.1562 29.8906 32.2969 30.6523 32.2969 31.7656C32.2969 32.8984 33.1758 33.6992 34.4258 33.6992Z" fill="black"/>
</svg>
