<svg width="70" height="70" viewBox="0 0 70 70" fill="none" xmlns="http://www.w3.org/2000/svg">
<rect width="70" height="70" rx="8" fill="#EDEEF7"/>
<path d="M34.3477 42.1953C31.2422 42.1953 29.0156 40.4766 28.957 38.0156H31.9258C31.9844 39.0703 33 39.7734 34.3672 39.7734C35.7734 39.7734 36.7891 38.9727 36.7695 37.8398C36.7891 36.6875 35.7539 35.8672 34.0938 35.8672H32.7852V33.6992H34.0938C35.4805 33.6992 36.457 32.9375 36.457 31.8242C36.457 30.75 35.6367 30.0078 34.3867 30.0078C33.1367 30.0078 32.1016 30.7109 32.0625 31.7852H29.25C29.2891 29.3438 31.4961 27.6641 34.3867 27.6641C37.3359 27.6641 39.3086 29.4023 39.2891 31.6484C39.3086 33.2305 38.1953 34.3633 36.6133 34.6367V34.7539C38.6836 35.0078 39.8359 36.2773 39.8164 38.0352C39.8359 40.457 37.5312 42.1953 34.3477 42.1953Z" fill="black"/>
</svg>
