<svg width="70" height="70" viewBox="0 0 70 70" fill="none" xmlns="http://www.w3.org/2000/svg">
<rect width="70" height="70" rx="8" fill="#EDEEF7"/>
<path d="M34.3086 42.1953C31.3594 42.1953 29.2109 40.457 29.1523 38.0156H32.0039C32.0625 39.1289 33.0781 39.8711 34.3086 39.8711C35.7734 39.8711 36.8086 38.8359 36.8086 37.3711C36.8086 35.8672 35.7539 34.832 34.2695 34.8125C33.2148 34.8125 32.4727 35.2031 32.043 36.0039H29.3867L30.1484 27.8594H38.8594V30.2617H32.5703L32.1797 33.8359H32.2969C32.8242 33.1328 33.8789 32.6445 35.1289 32.6445C37.7266 32.6445 39.6602 34.5781 39.6602 37.293C39.6602 40.1445 37.4922 42.1953 34.3086 42.1953Z" fill="black"/>
</svg>
