<svg width="70" height="70" viewBox="0 0 70 70" fill="none" xmlns="http://www.w3.org/2000/svg">
<rect width="70" height="70" rx="8" fill="#EDEEF7"/>
<path d="M34.2695 27.6641C37.1992 27.6836 39.9727 29.4219 39.9727 34.5586C39.9922 39.3633 37.707 42.1953 34.1523 42.1953C31.3008 42.1953 29.3672 40.418 29.0742 38.0156H31.9648C32.1992 39.0508 33.0195 39.6758 34.1523 39.6758C36.0859 39.6758 37.1016 37.957 37.1016 35.125H36.9844C36.3203 36.375 34.9336 37.1172 33.3516 37.1172C30.8125 37.1172 28.9375 35.2031 28.918 32.5664C28.918 29.7148 31.0664 27.6445 34.2695 27.6641ZM34.2891 29.9688C32.8438 29.9688 31.7695 31.082 31.7891 32.4883C31.7891 33.875 32.8242 34.9688 34.2695 34.9688C35.6953 34.9688 36.8086 33.8359 36.8086 32.4688C36.7891 31.1211 35.7344 29.9688 34.2891 29.9688Z" fill="black"/>
</svg>
