<svg width="70" height="70" viewBox="0 0 70 70" fill="none" xmlns="http://www.w3.org/2000/svg">
<rect width="70" height="70" rx="8" fill="#EDEEF7"/>
<path d="M34.582 42.1953C31.6523 42.1758 28.8789 40.4375 28.8789 35.2617C28.8789 30.4961 31.1641 27.6641 34.6992 27.6641C37.5508 27.6641 39.4844 29.4609 39.7773 31.7852H36.8867C36.6523 30.7891 35.832 30.1836 34.6992 30.1836C32.7852 30.1836 31.7695 31.9219 31.75 34.6953H31.8867C32.5312 33.4453 33.9375 32.7031 35.5 32.7031C38.0391 32.7031 39.9336 34.6172 39.9336 37.2734C39.9336 40.1445 37.7656 42.2148 34.582 42.1953ZM34.5625 39.8711C36.0078 39.8711 37.082 38.7773 37.082 37.3516C37.082 35.9453 36.0469 34.832 34.6016 34.832C33.1562 34.832 32.0625 35.9648 32.043 37.3516C32.0625 38.7383 33.1172 39.8711 34.5625 39.8711Z" fill="black"/>
</svg>
